name C:\Users\u0101727\Documents\MyRepositories\upper-imu-dc\Results\main_tracking\Case_68\kinematics.mot
datacolumns 10
datarows 33
range 5.00000000 5.32000000
endheader 
time	clav_prot	clav_elev	scapula_abduction	scapula_elevation	scapula_upward_rot	scapula_winging	plane_elv	shoulder_elv	axial_rot	
          5.00000000	        -26.62380642	          2.97859395	         -5.89041227	         -3.78734498	         35.99761463	         -2.40769632	         46.02067332	         48.04574191	         -1.75328742	
          5.01000000	        -26.58557966	          3.15190226	         -6.19204985	         -3.59681644	         35.59273610	         -2.35862245	         45.90254420	         47.87631524	         -1.68271754	
          5.02000000	        -26.56203017	          3.29260454	         -6.50715216	         -3.42970859	         35.19073947	         -2.30133962	         45.77396246	         47.72388696	         -1.60766191	
          5.03000000	        -26.55110911	          3.40175826	         -6.83103837	         -3.28539210	         34.79244374	         -2.23666486	         45.63046923	         47.58843908	         -1.52606607	
          5.04000000	        -26.55200676	          3.48330351	         -7.16284407	         -3.16122708	         34.39828224	         -2.16586143	         45.47001497	         47.46985955	         -1.43951589	
          5.05000000	        -26.56382977	          3.54248446	         -7.50138382	         -3.05377118	         34.00973873	         -2.09082136	         45.29549556	         47.36664170	         -1.34936070	
          5.06000000	        -26.58594545	          3.58469904	         -7.84523524	         -2.95963486	         33.62940020	         -2.01369318	         45.11124495	         47.27627594	         -1.25598360	
          5.07000000	        -26.61740332	          3.61389045	         -8.19230786	         -2.87639233	         33.25947330	         -1.93603073	         44.91939129	         47.19707242	         -1.15904061	
          5.08000000	        -26.65608036	          3.63063785	         -8.53868185	         -2.80368417	         32.90049034	         -1.85800209	         44.71726785	         47.12959441	         -1.05756315	
          5.09000000	        -26.69831893	          3.63214071	         -8.87774029	         -2.74322705	         32.55150007	         -1.77849601	         44.49768064	         47.07644768	         -0.95224689	
          5.10000000	        -26.74186129	          3.61500661	         -9.20463302	         -2.69736749	         32.21217031	         -1.69654162	         44.25525025	         47.03962578	         -0.84721989	
          5.11000000	        -26.78955845	          3.57915536	         -9.52204800	         -2.66698763	         31.88540476	         -1.61333823	         43.99825765	         47.01650603	         -0.74553346	
          5.12000000	        -26.84625465	          3.52850655	         -9.83489715	         -2.65083850	         31.57738981	         -1.53247067	         43.74874965	         46.99921724	         -0.64558599	
          5.13000000	        -26.90768704	          3.46527296	        -10.13475766	         -2.64757727	         31.29016661	         -1.45548795	         43.51415545	         46.98408238	         -0.54280986	
          5.14000000	        -26.96491179	          3.38656421	        -10.40841847	         -2.65804371	         31.01941301	         -1.37995195	         43.27616738	         46.97560948	         -0.43457430	
          5.15000000	        -27.03443090	          3.29331978	        -10.68943903	         -2.68189290	         30.76074837	         -1.30354283	         43.01642954	         46.97864950	         -0.31808960	
          5.16000000	        -27.10361569	          3.18516111	        -10.95798673	         -2.71798885	         30.51084143	         -1.22465250	         42.72289564	         46.99677420	         -0.18928965	
          5.17000000	        -27.16500042	          3.06258797	        -11.20277319	         -2.76510993	         30.26755120	         -1.14245116	         42.39064992	         47.03214503	         -0.04690776	
          5.18000000	        -27.21570319	          2.92716346	        -11.41985765	         -2.82180396	         30.03006178	         -1.05719277	         42.02442804	         47.08493543	          0.10524739	
          5.19000000	        -27.26164955	          2.78060896	        -11.62006777	         -2.88726473	         29.79848052	         -0.96997360	         41.63930603	         47.15319205	          0.26570495	
          5.20000000	        -27.30627243	          2.62593960	        -11.81180829	         -2.95922023	         29.57106552	         -0.88119960	         41.24141767	         47.23683528	          0.43985994	
          5.21000000	        -27.35000021	          2.46464031	        -11.99814597	         -3.03616241	         29.34543244	         -0.79058992	         40.83159651	         47.33738463	          0.62863604	
          5.22000000	        -27.39458226	          2.29982566	        -12.18441685	         -3.11563517	         29.12005690	         -0.69841848	         40.41128737	         47.45563913	          0.83097662	
          5.23000000	        -27.44094701	          2.13587193	        -12.37430389	         -3.19437337	         28.89424987	         -0.60548420	         39.98202906	         47.59145192	          1.04654652	
          5.24000000	        -27.49007070	          1.97726904	        -12.57120148	         -3.26913747	         28.66784404	         -0.51280327	         39.54494975	         47.74420955	          1.27457818	
          5.25000000	        -27.54190180	          1.82801390	        -12.77637214	         -3.33701794	         28.44083848	         -0.42137233	         39.09997051	         47.91325865	          1.51416370	
          5.26000000	        -27.59150860	          1.69091463	        -12.98154983	         -3.39575133	         28.21379189	         -0.33221449	         38.64589560	         48.09746089	          1.76424205	
          5.27000000	        -27.63380452	          1.56806600	        -13.17735005	         -3.44372125	         27.98796105	         -0.24648007	         38.18129061	         48.29490294	          2.02382081	
          5.28000000	        -27.68309312	          1.46273279	        -13.38896641	         -3.47969204	         27.76487502	         -0.16525604	         37.70496756	         48.50333038	          2.29203859	
          5.29000000	        -27.71683461	          1.37412106	        -13.57548614	         -3.50298779	         27.54579888	         -0.08922487	         37.21282452	         48.72092632	          2.56829157	
          5.30000000	        -27.75162935	          1.30542395	        -13.76503911	         -3.51294945	         27.33359566	         -0.01990576	         36.70418735	         48.94350417	          2.85196816	
          5.31000000	        -27.78910298	          1.25897946	        -13.95921086	         -3.50853664	         27.13104293	          0.04102514	         36.17956799	         49.16648382	          3.14255600	
          5.32000000	        -27.82333658	          1.23571795	        -14.14611212	         -3.48914465	         26.94046371	          0.09226370	         35.63862482	         49.38553138	          3.43975839	
